name p2_grf_mean_speed_1.6
datacolumns 13
datarows 34
range 0.0000000000 0.3300000000
endheader
time	grf_x_l_mean	grf_x_l_var	grf_y_l_mean	grf_y_l_var	grf_z_l_mean	grf_z_l_var	grf_x_r_mean	grf_x_r_var	grf_y_r_mean	grf_y_r_var	grf_z_r_mean	grf_z_r_var
0.0000000000	165.6683670325	1.0000000000	702.2246798929	1.0000000000	0.0000000000	0.0000000000	12.0787820530	1.0000000000	11.0267326808	1.0000000000	0.0000000000	0.0000000000
0.0100000000	171.6876333703	1.0000000000	681.5963120685	1.0000000000	0.0000000000	0.0000000000	21.6927154013	1.0000000000	42.2516514897	1.0000000000	0.0000000000	0.0000000000
0.0200000000	173.6870170151	1.0000000000	647.2573130554	1.0000000000	0.0000000000	0.0000000000	31.2145155140	1.0000000000	92.0446508179	1.0000000000	0.0000000000	0.0000000000
0.0300000000	171.1031018408	1.0000000000	598.8981189912	1.0000000000	0.0000000000	0.0000000000	33.7036022886	1.0000000000	157.2882381241	1.0000000000	0.0000000000	0.0000000000
0.0400000000	162.2358052258	1.0000000000	536.6810628252	1.0000000000	0.0000000000	0.0000000000	22.0991216069	1.0000000000	232.7462951179	1.0000000000	0.0000000000	0.0000000000
0.0500000000	146.7943061412	1.0000000000	462.9633300514	1.0000000000	0.0000000000	0.0000000000	-0.3726672182	1.0000000000	316.9261574265	1.0000000000	0.0000000000	0.0000000000
0.0600000000	127.5958315644	1.0000000000	382.8543153218	1.0000000000	0.0000000000	0.0000000000	-28.4110991110	1.0000000000	407.7843311085	1.0000000000	0.0000000000	0.0000000000
0.0700000000	104.2296217744	1.0000000000	301.4059295412	1.0000000000	0.0000000000	0.0000000000	-61.1573130934	1.0000000000	497.5554587136	1.0000000000	0.0000000000	0.0000000000
0.0800000000	78.5356640567	1.0000000000	223.2267281147	1.0000000000	0.0000000000	0.0000000000	-95.3366584114	1.0000000000	577.8230409947	1.0000000000	0.0000000000	0.0000000000
0.0900000000	54.7814106722	1.0000000000	154.2153633879	1.0000000000	0.0000000000	0.0000000000	-125.1809104914	1.0000000000	646.2508292494	1.0000000000	0.0000000000	0.0000000000
0.1000000000	34.2218845977	1.0000000000	98.7039369934	1.0000000000	0.0000000000	0.0000000000	-149.6822634840	1.0000000000	704.3642256057	1.0000000000	0.0000000000	0.0000000000
0.1100000000	18.3121995548	1.0000000000	56.0743306304	1.0000000000	0.0000000000	0.0000000000	-168.9416693192	1.0000000000	752.9630428843	1.0000000000	0.0000000000	0.0000000000
0.1200000000	8.4850134443	1.0000000000	25.3500752449	1.0000000000	0.0000000000	0.0000000000	-179.9141288255	1.0000000000	792.3740827446	1.0000000000	0.0000000000	0.0000000000
0.1300000000	2.7283340351	1.0000000000	7.0086653746	1.0000000000	0.0000000000	0.0000000000	-182.5793007264	1.0000000000	822.2576762077	1.0000000000	0.0000000000	0.0000000000
0.1400000000	0.0000000000	1.0000000000	0.0000000000	1.0000000000	0.0000000000	0.0000000000	-179.2794754311	1.0000000000	840.3740131686	1.0000000000	0.0000000000	0.0000000000
0.1500000000	0.0000000000	1.0000000000	0.0000000000	1.0000000000	0.0000000000	0.0000000000	-169.7009668427	1.0000000000	844.5806627634	1.0000000000	0.0000000000	0.0000000000
0.1600000000	0.0000000000	1.0000000000	0.0000000000	1.0000000000	0.0000000000	0.0000000000	-155.3564547864	1.0000000000	835.8389539437	1.0000000000	0.0000000000	0.0000000000
0.1700000000	0.0000000000	1.0000000000	0.0000000000	1.0000000000	0.0000000000	0.0000000000	-139.5484059431	1.0000000000	817.0033452392	1.0000000000	0.0000000000	0.0000000000
0.1800000000	0.0000000000	1.0000000000	0.0000000000	1.0000000000	0.0000000000	0.0000000000	-122.4316865049	1.0000000000	789.1419808396	1.0000000000	0.0000000000	0.0000000000
0.1900000000	0.0000000000	1.0000000000	0.0000000000	1.0000000000	0.0000000000	0.0000000000	-104.5451411081	1.0000000000	752.1818637794	1.0000000000	0.0000000000	0.0000000000
0.2000000000	0.0000000000	1.0000000000	0.0000000000	1.0000000000	0.0000000000	0.0000000000	-88.1251383360	1.0000000000	707.4004508038	1.0000000000	0.0000000000	0.0000000000
0.2100000000	0.0000000000	1.0000000000	0.0000000000	1.0000000000	0.0000000000	0.0000000000	-73.1559288382	1.0000000000	657.3525025738	1.0000000000	0.0000000000	0.0000000000
0.2200000000	0.0000000000	1.0000000000	0.0000000000	1.0000000000	0.0000000000	0.0000000000	-58.8285602564	1.0000000000	604.6052615596	1.0000000000	0.0000000000	0.0000000000
0.2300000000	0.0000000000	1.0000000000	0.0000000000	1.0000000000	0.0000000000	0.0000000000	-46.6321393481	1.0000000000	551.2286431563	1.0000000000	0.0000000000	0.0000000000
0.2400000000	0.0000000000	1.0000000000	0.0000000000	1.0000000000	0.0000000000	0.0000000000	-36.4418670546	1.0000000000	499.3967808090	1.0000000000	0.0000000000	0.0000000000
0.2500000000	0.0000000000	1.0000000000	0.0000000000	1.0000000000	0.0000000000	0.0000000000	-27.3666975214	1.0000000000	451.9135862806	1.0000000000	0.0000000000	0.0000000000
0.2600000000	0.0000000000	1.0000000000	0.0000000000	1.0000000000	0.0000000000	0.0000000000	-19.8672688825	1.0000000000	411.1235411563	1.0000000000	0.0000000000	0.0000000000
0.2700000000	0.0000000000	1.0000000000	0.0000000000	1.0000000000	0.0000000000	0.0000000000	-13.9451258376	1.0000000000	377.7323640786	1.0000000000	0.0000000000	0.0000000000
0.2800000000	0.0000000000	1.0000000000	0.0000000000	1.0000000000	0.0000000000	0.0000000000	-9.0018561465	1.0000000000	351.8508235855	1.0000000000	0.0000000000	0.0000000000
0.2900000000	0.0000000000	1.0000000000	0.0000000000	1.0000000000	0.0000000000	0.0000000000	-5.1414651796	1.0000000000	333.6927367146	1.0000000000	0.0000000000	0.0000000000
0.3000000000	0.0000000000	1.0000000000	0.0000000000	1.0000000000	0.0000000000	0.0000000000	-2.1507389628	1.0000000000	322.9364971455	1.0000000000	0.0000000000	0.0000000000
0.3100000000	0.0000000000	1.0000000000	0.0000000000	1.0000000000	0.0000000000	0.0000000000	0.3810294930	1.0000000000	318.9670866853	1.0000000000	0.0000000000	0.0000000000
0.3200000000	0.0000000000	1.0000000000	0.0000000000	1.0000000000	0.0000000000	0.0000000000	2.3927049752	1.0000000000	320.9364131977	1.0000000000	0.0000000000	0.0000000000
0.3300000000	0.0000000000	1.0000000000	0.0000000000	1.0000000000	0.0000000000	0.0000000000	4.4075136866	1.0000000000	327.7673521045	1.0000000000	0.0000000000	0.0000000000
